<?xml version="1.0" standalone="no"?>
<!DOCTYPE svg PUBLIC "-//W3C//DTD SVG 20010904//EN"
 "http://www.w3.org/TR/2001/REC-SVG-20010904/DTD/svg10.dtd">
<svg version="1.0" xmlns="http://www.w3.org/2000/svg"
 width="2048.000000pt" height="2048.000000pt" viewBox="0 0 2048.000000 2048.000000"
 preserveAspectRatio="xMidYMid meet">

<g transform="translate(0.000000,2048.000000) scale(0.100000,-0.100000)"
fill="#000000" stroke="none">
<path d="M6196 14928 c-3 -7 -16 -62 -30 -123 -14 -60 -69 -294 -121 -520 -53
-225 -119 -507 -147 -625 -27 -118 -61 -260 -73 -315 -34 -145 -103 -437 -125
-530 -10 -44 -53 -224 -94 -400 -207 -889 -371 -1587 -406 -1735 -22 -91 -91
-388 -155 -660 -64 -272 -148 -630 -186 -795 -39 -165 -95 -403 -125 -528 -30
-126 -54 -235 -54 -243 0 -12 102 -14 699 -14 658 0 700 1 705 18 3 9 75 334
161 722 86 388 158 715 162 728 l5 22 708 0 708 0 5 -22 c4 -13 74 -340 157
-728 83 -388 153 -713 156 -722 5 -17 48 -18 714 -18 l708 0 -13 53 c-12 46
-206 882 -431 1857 -41 179 -147 633 -234 1010 -87 377 -213 921 -280 1210
-66 289 -145 631 -175 760 -31 129 -127 543 -214 920 l-158 685 -932 3 c-740
2 -932 0 -935 -10z m1229 -3013 c108 -550 197 -1006 198 -1013 2 -11 -93 -13
-501 -15 -317 -1 -502 2 -502 8 0 5 9 52 20 105 11 52 56 282 100 510 45 228
96 492 115 585 18 94 83 429 145 745 61 316 114 582 117 590 7 17 37 -133 308
-1515z"/>
<path d="M9760 12327 l0 -2615 116 -498 c134 -579 174 -756 174 -766 0 -5 239
-8 530 -8 l530 0 0 1225 0 1225 453 -2 452 -3 68 -200 c38 -110 124 -364 192
-565 68 -201 219 -646 335 -990 117 -344 216 -640 221 -657 l10 -33 729 0
c402 0 730 3 730 8 0 4 -16 52 -36 107 -20 55 -64 181 -99 280 -34 99 -112
320 -173 490 -61 171 -141 396 -177 500 -37 105 -78 219 -90 255 -57 159 -184
517 -270 760 -51 146 -107 303 -124 350 l-31 85 22 15 c341 235 551 490 652
793 48 143 51 195 51 857 0 600 -1 630 -22 745 -57 310 -176 540 -384 740
-245 234 -557 377 -999 454 -301 53 -318 54 -1632 58 l-1228 5 0 -2615z m2399
1597 c315 -46 485 -181 536 -426 12 -56 15 -170 15 -582 0 -319 -4 -535 -11
-572 -36 -202 -231 -379 -503 -457 -66 -19 -107 -21 -579 -26 l-507 -6 0 1043
0 1042 471 0 c376 0 493 -3 578 -16z"/>
<path d="M14460 12197 l0 -2743 84 -240 c46 -131 127 -358 178 -504 l95 -265
496 -3 497 -2 -2 3247 -3 3248 -672 3 -673 2 0 -2743z"/>
<path d="M4670 8105 l0 -65 5570 0 5570 0 0 65 0 65 -5570 0 -5570 0 0 -65z"/>
<path d="M7825 7715 c-5 -2 -35 -11 -65 -20 -128 -38 -206 -124 -242 -267 -28
-113 -23 -343 11 -430 46 -118 116 -187 228 -224 85 -28 336 -27 408 2 60 23
66 42 36 110 -19 42 -23 46 -48 40 -104 -23 -145 -28 -200 -23 -117 11 -178
53 -214 146 -18 47 -22 77 -22 186 1 153 20 223 78 274 60 53 177 72 290 48
41 -9 77 -11 86 -6 15 8 39 70 39 102 0 39 -115 67 -268 66 -59 0 -111 -2
-117 -4z"/>
<path d="M8600 7710 c-205 -52 -294 -195 -294 -475 0 -196 39 -313 130 -393
71 -63 137 -85 275 -90 138 -5 213 11 293 62 113 72 166 206 166 421 0 190
-40 307 -133 390 -73 67 -138 87 -282 91 -66 2 -136 -1 -155 -6z m211 -151
c47 -16 87 -56 112 -109 16 -36 21 -72 25 -179 6 -178 -15 -274 -72 -325 -76
-68 -233 -58 -294 18 -42 54 -57 121 -57 266 0 153 16 223 62 278 46 54 145
77 224 51z"/>
<path d="M10532 7704 c-86 -23 -128 -50 -168 -110 -24 -35 -36 -126 -24 -179
22 -99 76 -147 283 -248 107 -53 142 -75 157 -100 34 -55 21 -110 -33 -142
-46 -27 -190 -32 -296 -11 -45 9 -86 14 -91 11 -12 -8 -42 -114 -35 -125 23
-37 329 -65 445 -41 122 25 206 86 235 169 19 57 19 95 0 160 -22 73 -81 122
-261 212 -114 58 -154 84 -171 109 -28 42 -29 80 -3 114 32 41 79 51 199 42
196 -13 174 -18 191 47 9 39 11 61 4 68 -36 36 -328 53 -432 24z"/>
<path d="M15325 7710 c-175 -37 -279 -137 -317 -302 -7 -29 -12 -111 -12 -183
0 -254 72 -380 252 -448 50 -18 78 -21 227 -22 139 0 181 3 232 19 108 33 103
20 103 296 0 180 -3 241 -12 247 -17 10 -283 14 -328 5 l-35 -8 0 -59 0 -60
88 -3 87 -3 0 -135 c0 -119 -2 -135 -17 -142 -10 -4 -61 -7 -113 -7 -80 0
-103 4 -143 24 -88 43 -127 137 -127 306 0 159 40 257 123 298 83 41 157 43
373 10 27 -4 32 -1 44 27 7 17 13 47 14 67 1 36 0 37 -59 56 -67 22 -309 33
-380 17z"/>
<path d="M5007 7698 c-9 -7 -34 -65 -56 -128 -21 -63 -91 -266 -154 -451 -85
-248 -112 -340 -104 -348 7 -7 50 -11 109 -11 115 0 112 -3 149 128 l23 82
176 0 176 0 28 -92 c15 -51 32 -99 38 -105 16 -20 207 -18 214 2 3 8 -20 88
-51 177 -31 90 -94 273 -140 408 -111 326 -106 313 -123 333 -13 14 -34 17
-142 17 -85 0 -132 -4 -143 -12z m172 -245 c28 -96 92 -304 98 -320 4 -10 -25
-13 -127 -13 l-131 0 7 23 c8 25 49 157 91 294 15 51 31 93 34 93 3 0 15 -35
28 -77z"/>
<path d="M5751 7692 c-16 -31 -15 -904 1 -920 7 -7 44 -12 98 -12 54 0 91 5
98 12 8 8 12 58 12 158 l0 147 55 -2 c30 -1 56 -3 58 -6 2 -2 50 -68 107 -147
57 -79 112 -147 122 -153 10 -5 60 -8 111 -7 76 2 92 6 91 19 -1 11 -141 211
-215 305 -6 8 10 18 50 33 80 29 145 99 162 175 32 145 -11 293 -102 349 -83
51 -133 59 -396 64 -235 5 -241 5 -252 -15z m468 -160 c57 -28 75 -62 75 -140
-1 -132 -39 -161 -221 -170 l-113 -5 0 173 0 173 113 -7 c72 -5 124 -13 146
-24z"/>
<path d="M6712 7702 c-10 -7 -12 -108 -10 -473 l3 -464 100 0 100 0 3 464 c2
365 0 466 -10 473 -7 4 -49 8 -93 8 -44 0 -86 -4 -93 -8z"/>
<path d="M9362 7698 c-9 -9 -12 -125 -12 -459 0 -246 3 -454 6 -463 5 -13 23
-16 93 -16 47 0 92 4 98 8 10 6 13 84 15 310 l3 302 193 -310 193 -311 97 3
97 3 3 464 c2 365 0 466 -10 473 -7 4 -50 8 -95 8 -71 0 -84 -3 -93 -19 -6
-12 -10 -130 -10 -312 l0 -293 -32 50 c-17 27 -43 69 -58 94 -120 199 -284
457 -297 468 -22 16 -175 16 -191 0z"/>
<path d="M11192 7701 c-10 -6 -12 -82 -10 -373 l3 -364 30 -60 c33 -63 92
-113 163 -135 56 -17 264 -23 335 -9 109 21 179 73 221 160 20 43 21 62 24
412 l3 367 -23 6 c-13 3 -59 5 -103 3 l-80 -3 -5 -345 c-3 -190 -9 -354 -14
-365 -32 -73 -122 -108 -219 -86 -64 14 -100 48 -116 106 -7 25 -11 161 -11
361 0 284 -2 323 -16 328 -23 9 -167 7 -182 -3z"/>
<path d="M12170 7691 c-13 -26 -14 -870 0 -905 l10 -26 279 0 c154 0 286 3
295 6 20 8 23 123 4 142 -8 8 -66 12 -195 12 l-183 0 0 383 c0 285 -3 386 -12
395 -8 8 -45 12 -100 12 -76 0 -89 -2 -98 -19z"/>
<path d="M12716 7694 c-3 -9 -6 -37 -6 -64 0 -82 -3 -80 131 -80 l119 0 2
-392 3 -393 100 0 100 0 3 393 2 392 113 0 c75 0 117 4 125 12 7 7 12 37 12
68 0 31 -5 61 -12 68 -9 9 -100 12 -349 12 -298 0 -338 -2 -343 -16z"/>
<path d="M13585 7698 c-3 -7 -4 -220 -3 -473 l3 -460 100 0 100 0 3 459 c1
330 -1 463 -9 472 -15 19 -187 20 -194 2z"/>
<path d="M14022 7702 c-10 -7 -12 -108 -10 -473 l3 -464 98 -3 c53 -1 98 -1
99 0 1 2 5 141 8 310 l5 308 149 -243 c83 -133 170 -273 194 -310 l43 -68 97
3 97 3 0 470 0 470 -88 3 c-57 2 -94 -1 -103 -9 -11 -9 -14 -67 -15 -313 0
-198 -3 -296 -10 -286 -5 8 -91 145 -190 305 -99 159 -185 293 -192 297 -16
10 -168 10 -185 0z"/>
<path d="M4672 6423 l3 -68 5565 0 5565 0 3 68 3 67 -5571 0 -5571 0 3 -67z"/>
<path d="M4670 5845 l0 -285 785 0 784 0 3 281 c2 154 1 283 -1 285 -2 2 -357
4 -788 4 l-783 0 0 -285z"/>
<path d="M14239 6126 c-2 -2 -3 -131 -1 -285 l3 -281 784 0 785 0 0 285 0 285
-783 0 c-431 0 -786 -2 -788 -4z"/>
<path d="M6775 6104 c-65 -21 -97 -44 -133 -99 -59 -89 -63 -246 -8 -339 47
-80 119 -117 228 -118 99 0 171 39 208 112 27 52 25 66 -7 74 -16 3 -38 8 -50
12 -18 5 -25 -1 -42 -34 -28 -56 -55 -72 -117 -72 -65 0 -104 29 -129 95 -22
55 -17 164 9 217 24 49 90 83 143 73 45 -8 89 -38 98 -65 4 -12 15 -20 29 -20
35 0 86 20 86 34 0 26 -61 96 -100 116 -55 28 -151 34 -215 14z"/>
<path d="M9786 6096 c-72 -31 -100 -56 -131 -120 -73 -150 -23 -333 107 -400
50 -25 68 -29 141 -29 66 1 93 6 128 23 102 51 141 115 147 243 5 104 -11 158
-67 220 -47 52 -106 78 -194 83 -61 4 -81 1 -131 -20z m194 -89 c61 -32 85
-81 85 -172 0 -127 -57 -195 -163 -195 -105 0 -162 67 -162 191 0 89 29 146
90 177 56 28 96 28 150 -1z"/>
<path d="M10414 6111 c-116 -30 -168 -137 -109 -224 31 -45 76 -68 175 -92
110 -26 130 -38 130 -80 0 -65 -88 -101 -168 -70 -32 13 -45 26 -59 57 l-18
40 -49 -6 c-27 -3 -51 -8 -54 -11 -8 -7 17 -74 37 -103 9 -12 39 -35 66 -49
42 -22 63 -26 130 -26 95 1 152 20 194 68 34 39 46 91 31 142 -20 74 -67 105
-210 142 -92 24 -120 42 -120 77 0 43 90 69 154 44 14 -5 32 -23 41 -40 14
-28 19 -30 72 -30 l56 0 -7 32 c-9 44 -52 97 -94 115 -42 17 -155 25 -198 14z"/>
<path d="M12888 6106 c-116 -31 -188 -136 -188 -276 0 -177 105 -283 280 -283
120 1 200 45 247 136 34 68 42 170 19 250 -41 140 -198 216 -358 173z m162
-98 c69 -35 90 -75 90 -167 -1 -137 -52 -201 -161 -201 -104 0 -161 67 -161
189 0 104 24 149 97 182 53 24 82 24 135 -3z"/>
<path d="M7212 5833 l3 -278 55 0 54 0 1 115 0 115 49 -2 c59 -2 69 -11 159
-138 l63 -90 62 -3 c40 -2 62 1 62 8 0 21 -114 182 -147 209 -18 14 -33 30
-33 34 0 5 4 6 8 3 15 -9 89 32 111 63 29 40 31 118 4 163 -35 61 -75 72 -276
76 l-177 4 2 -279z m333 162 c30 -29 32 -64 6 -96 -18 -22 -26 -24 -123 -24
l-103 0 -1 65 c-1 36 0 68 3 73 2 4 47 7 99 7 87 0 97 -2 119 -25z"/>
<path d="M7810 5830 l0 -280 218 2 217 3 3 42 3 42 -163 3 -163 3 -3 78 -3 77
146 0 145 0 0 45 0 45 -145 0 -145 0 0 65 0 65 160 0 160 0 0 45 0 45 -215 0
-215 0 0 -280z"/>
<path d="M8527 6103 c-12 -20 -217 -534 -217 -543 0 -7 21 -10 57 -8 l57 3 24
63 24 63 120 -3 120 -3 25 -62 25 -63 59 0 c32 0 59 2 59 4 0 2 -50 122 -111
267 -61 145 -113 270 -116 277 -6 13 -118 18 -126 5z m107 -231 c20 -50 36
-94 36 -97 0 -3 -36 -5 -80 -5 -44 0 -80 3 -80 7 0 18 76 201 81 195 3 -4 22
-49 43 -100z"/>
<path d="M8960 5829 l0 -280 48 3 47 3 5 215 c4 187 7 210 17 175 14 -46 103
-382 103 -388 0 -2 24 -5 54 -6 45 -2 55 1 60 16 3 10 24 90 47 178 69 269 63
267 69 25 l5 -215 48 0 c26 0 47 3 47 8 0 4 0 129 0 277 l0 270 -80 0 c-65 0
-81 -3 -89 -17 -5 -10 -28 -90 -51 -178 -24 -88 -46 -166 -50 -173 -3 -7 -30
73 -59 178 l-53 190 -84 0 -84 0 0 -281z"/>
<path d="M11010 6106 c0 -3 18 -52 40 -108 22 -57 68 -179 103 -273 l62 -170
61 -3 c59 -3 62 -2 72 25 40 100 192 515 192 523 0 6 -25 10 -55 10 -42 0 -56
-4 -63 -17 -5 -10 -38 -102 -73 -205 -35 -103 -67 -184 -70 -180 -4 4 -38 95
-77 202 l-70 195 -61 3 c-33 2 -61 1 -61 -2z"/>
<path d="M11781 6093 c-17 -34 -211 -521 -211 -532 0 -7 21 -11 54 -11 l54 0
25 63 25 62 120 3 120 3 24 -63 24 -63 61 -1 60 -2 -18 47 c-9 25 -38 96 -64
156 -25 61 -68 165 -96 233 l-51 122 -59 0 c-45 0 -60 -4 -68 -17z m111 -220
c20 -51 33 -95 30 -98 -9 -9 -152 -6 -152 4 0 22 74 201 80 194 4 -4 23 -49
42 -100z"/>
<path d="M13370 5841 c0 -149 0 -274 0 -278 0 -5 24 -8 53 -8 l52 0 3 118 3
117 30 0 c59 0 91 -26 168 -135 l74 -105 64 0 c35 0 63 2 63 5 0 18 -119 181
-152 210 -36 30 -39 35 -22 40 44 13 89 42 108 68 29 40 29 125 0 164 -45 60
-72 67 -266 72 l-178 3 0 -271z m307 168 c34 -13 43 -25 43 -65 0 -54 -28 -69
-141 -72 l-99 -4 0 76 0 76 84 0 c47 0 97 -5 113 -11z"/>
<path d="M12222 5828 l3 -273 200 0 200 0 3 42 3 42 -148 3 -148 3 -3 228 -2
227 -55 0 -55 0 2 -272z"/>
</g>
</svg>
