<?xml version="1.0" standalone="no"?>
<!DOCTYPE svg PUBLIC "-//W3C//DTD SVG 20010904//EN"
 "http://www.w3.org/TR/2001/REC-SVG-20010904/DTD/svg10.dtd">
<svg version="1.0" xmlns="http://www.w3.org/2000/svg"
 width="500.000000pt" height="500.000000pt" viewBox="0 0 500.000000 500.000000"
 preserveAspectRatio="xMidYMid meet">

<g transform="translate(0.000000,500.000000) scale(0.100000,-0.100000)"
fill="#000000" stroke="none">
<path d="M630 3121 c0 -77 -4 -81 -71 -81 l-59 0 0 -500 0 -500 65 0 65 0 0
-60 0 -60 1855 0 1855 0 0 70 0 70 60 0 60 0 0 495 0 495 -65 0 -65 0 0 60 0
60 -1850 0 -1850 0 0 -49z m3652 -68 l3 -58 63 -3 62 -3 0 -444 0 -444 -62 -3
-63 -3 -3 -62 -3 -63 -1794 0 -1795 0 0 65 0 65 -65 0 -65 0 0 445 0 445 65 0
65 0 0 60 0 60 1795 0 1794 0 3 -57z"/>
<path d="M738 2993 l-3 -58 -60 0 -60 0 0 -390 0 -389 60 -1 60 -1 3 -62 3
-62 1744 0 1744 0 3 62 3 63 60 0 60 1 0 389 0 390 -60 0 -60 0 -3 58 -3 57
-1744 0 -1744 0 -3 -57z m1575 -152 c27 -28 28 -32 16 -70 -13 -44 -36 -54
-59 -26 -15 19 -44 19 -59 2 -8 -11 -1 -21 33 -45 45 -33 86 -99 86 -140 0
-37 -25 -86 -59 -115 -38 -32 -26 -37 14 -5 52 40 68 117 41 183 -17 40 -4 47
19 11 35 -53 28 -134 -17 -191 -43 -55 -133 -80 -187 -52 -36 18 -41 40 -6 27
14 -5 43 -9 63 -9 32 1 30 3 -16 9 -58 9 -103 33 -98 53 3 6 7 24 10 40 7 32
26 35 44 7 7 -12 23 -20 40 -20 33 0 45 8 61 38 18 35 -1 71 -60 117 -65 49
-79 71 -79 120 0 96 140 139 213 66z m1144 12 c10 -12 9 -23 -3 -51 -8 -19
-12 -37 -9 -40 5 -5 25 42 25 59 0 14 20 11 26 -4 6 -15 -21 -83 -37 -92 -6
-4 -21 2 -33 14 -30 28 -60 27 -76 -4 -15 -28 -19 -121 -8 -172 4 -18 4 -33
-1 -33 -17 0 -36 66 -35 122 2 75 20 117 58 134 17 7 24 13 15 14 -44 1 -89
-76 -89 -152 0 -42 21 -100 45 -124 28 -28 79 -32 112 -9 27 19 38 5 28 -33
-11 -44 -34 -62 -79 -62 -51 0 -113 34 -143 78 -77 114 -39 312 70 363 48 22
114 19 134 -8z m423 -1 c43 -31 64 -88 71 -192 l6 -95 1 85 c1 52 -5 101 -13
125 -17 48 -17 45 -6 45 5 0 19 -23 31 -52 19 -44 22 -65 18 -142 -7 -157 -68
-241 -174 -241 -42 0 -58 5 -78 24 -36 34 -32 45 7 21 41 -25 93 -25 134 0 33
20 73 85 73 117 -1 10 -7 0 -15 -21 -21 -59 -64 -97 -116 -103 -85 -8 -132 47
-151 179 -13 83 8 186 45 226 48 53 114 62 167 24z m-2808 -187 c-2 -141 0
-205 7 -205 8 0 11 59 11 183 0 101 3 187 7 190 3 4 12 2 20 -4 9 -8 10 -15 3
-24 -10 -12 -9 -342 1 -390 4 -18 -2 -20 -48 -23 -43 -2 -53 0 -53 12 0 12 10
16 35 16 19 0 35 3 35 8 0 4 -24 7 -52 7 -41 0 -52 3 -50 14 3 13 3 380 1 399
-3 18 4 22 44 22 l42 0 -3 -205z m162 23 l-1 -183 6 157 c4 105 10 161 19 170
15 15 14 26 12 -171 l-2 -164 51 6 c28 3 53 2 56 -2 2 -5 0 -23 -6 -40 l-11
-31 -106 0 -107 0 0 220 0 220 45 0 45 0 -1 -182z m479 162 c31 -25 41 -62 27
-106 -15 -46 -52 -72 -111 -80 l-49 -7 2 -101 2 -101 5 94 6 95 55 12 c71 16
110 56 110 114 0 44 16 54 26 16 16 -64 -40 -137 -120 -157 l-48 -12 4 -114 4
-114 -50 3 c-63 4 -73 25 -14 31 40 3 39 4 -12 5 l-55 2 0 220 0 220 96 0 c81
0 100 -3 122 -20z m258 -12 c0 -23 3 -28 7 -16 10 24 30 9 30 -22 0 -41 63
-333 79 -364 19 -38 7 -48 -52 -44 -61 4 -75 28 -16 28 23 0 41 3 41 8 0 4
-25 5 -56 3 -53 -3 -57 -2 -52 17 6 21 -15 138 -26 149 -4 4 -10 2 -15 -3 -13
-14 -33 -126 -29 -164 l3 -35 -53 -3 c-47 -3 -54 -1 -59 17 -3 12 -12 21 -19
21 -16 0 -17 5 -5 28 15 28 83 370 76 382 -13 21 9 30 76 30 l69 0 1 -32z
m623 -15 c0 -24 3 -43 8 -43 4 0 8 14 8 31 0 27 2 30 16 18 13 -11 14 -9 9 14
-7 26 -6 27 41 27 l49 0 -3 -207 c-2 -115 0 -205 4 -201 4 5 8 87 9 183 1 117
6 180 14 188 6 6 11 7 12 2 0 -6 1 -98 3 -205 1 -107 4 -204 7 -215 4 -18 -1
-20 -50 -20 -35 0 -56 5 -58 13 -3 8 8 12 36 12 23 0 41 3 41 8 0 4 -24 6 -52
4 l-53 -4 3 160 3 159 -38 6 c-20 4 -41 3 -46 -2 -5 -5 -7 -88 -6 -185 l4
-177 -49 3 c-62 4 -77 28 -17 28 23 0 41 3 41 8 0 4 -24 6 -52 4 l-53 -4 3
165 4 165 -26 -5 c-19 -4 -26 -1 -26 11 0 9 5 16 10 16 6 0 10 5 10 12 0 9 -3
9 -12 0 -25 -25 -38 -13 -38 33 l0 46 123 -3 122 -3 -1 -42z m436 26 c0 -11
-5 -29 -11 -41 -6 -11 -8 -22 -5 -26 4 -3 12 9 18 26 23 61 39 26 17 -37 -9
-24 -16 -31 -28 -26 -35 15 -101 18 -101 5 0 -7 8 -10 20 -7 24 6 36 -27 26
-74 -3 -19 -2 -28 4 -24 6 3 10 22 10 42 0 30 2 34 15 23 17 -14 20 -62 5 -91
-9 -15 -15 -17 -30 -9 -10 5 -26 10 -36 10 -15 0 -16 -12 -12 -115 l4 -116
-50 3 c-52 3 -74 23 -34 31 16 3 12 5 -12 6 l-35 1 0 220 0 220 118 0 c112 0
117 -1 117 -21z m124 -181 l-1 -203 6 177 c4 122 10 181 19 190 6 6 12 10 12
8 0 -3 2 -105 3 -228 l2 -223 -49 3 c-62 4 -77 28 -17 28 23 0 41 3 41 8 0 4
-25 5 -56 4 -51 -4 -55 -2 -51 15 9 29 12 377 3 391 -13 21 3 32 47 32 l42 0
-1 -202z m456 182 c-9 -26 -11 -390 -3 -390 4 0 8 81 9 180 0 99 3 183 7 186
3 4 13 4 22 0 13 -4 14 -10 5 -26 -11 -20 -10 -332 1 -385 4 -18 -2 -20 -48
-23 -43 -2 -53 0 -53 12 0 12 10 16 35 16 19 0 35 3 35 8 0 4 -24 7 -52 7 -43
0 -52 3 -48 15 9 28 9 373 0 390 -13 25 -2 31 50 28 35 -2 44 -6 40 -18z
m-2762 -82 c9 -17 27 -42 39 -55 19 -20 21 -27 11 -48 -8 -18 -8 -28 1 -39 10
-11 7 -19 -11 -38 -13 -13 -31 -39 -40 -56 -9 -18 -22 -32 -28 -32 -18 0 -11
46 13 76 l22 29 -36 -28 c-39 -30 -69 -35 -69 -12 0 14 8 23 45 50 18 13 15
14 -35 9 -44 -5 -58 -3 -69 10 -11 13 -11 19 0 32 11 13 25 15 69 11 l55 -6
-33 20 c-36 23 -44 59 -13 59 11 0 23 -4 26 -10 3 -5 16 -15 28 -21 21 -11 21
-11 6 7 -20 24 -31 53 -23 65 10 17 25 9 42 -23z m3315 18 c3 -7 -1 -25 -8
-40 -15 -28 -5 -35 15 -11 7 8 21 15 31 15 31 0 23 -38 -13 -60 l-32 -19 55 6
c44 4 57 2 69 -12 23 -28 -13 -48 -72 -40 -56 7 -60 2 -18 -20 18 -9 30 -23
30 -35 0 -29 -32 -25 -72 8 l-33 27 23 -29 c23 -30 30 -76 12 -76 -6 0 -19 14
-28 32 -9 17 -25 40 -35 50 -13 13 -17 28 -13 44 4 13 2 33 -4 44 -8 15 -5 24
12 43 13 13 31 38 40 55 18 34 33 41 41 18z m-653 -300 c0 -7 -3 -28 -6 -46
-8 -36 -49 -60 -106 -60 -40 0 -115 36 -129 61 -13 25 -4 24 33 -3 35 -25 116
-35 146 -19 11 6 26 27 32 46 11 35 30 48 30 21z m-2100 -16 c0 -6 -7 -26 -15
-46 l-14 -35 -102 3 c-71 2 -104 7 -107 16 -3 9 21 12 96 12 l100 0 7 30 c6
27 35 44 35 20z m590 -210 c9 -16 8 -22 -5 -26 -8 -4 -21 -1 -29 5 -17 14 -26
4 -26 -31 0 -30 17 -37 38 -16 9 9 15 9 25 -1 10 -10 7 -16 -12 -32 -25 -20
-57 -18 -76 6 -14 17 -10 82 5 100 18 22 67 19 80 -5z m105 -30 c-1 -40 2 -46
25 -50 42 -9 31 -35 -15 -35 l-40 0 -3 68 c-3 62 -1 68 15 65 14 -3 18 -13 18
-48z m196 -5 c28 -74 22 -110 -11 -70 -16 19 -39 19 -46 1 -5 -12 -33 -17 -36
-5 0 2 9 32 22 67 28 76 44 77 71 7z m162 40 c7 -17 -6 -27 -26 -19 -8 3 -18
1 -22 -5 -3 -6 2 -11 12 -11 46 0 60 -63 18 -82 -19 -8 -31 -8 -50 0 -36 17
-31 32 11 32 21 0 33 4 29 10 -3 6 -15 10 -25 10 -27 0 -44 34 -30 60 13 24
75 28 83 5z m152 -5 c0 -9 -9 -15 -22 -15 -34 0 -37 -12 -5 -18 34 -7 46 -30
32 -57 -13 -25 -42 -33 -74 -20 -34 12 -25 30 15 30 18 0 28 4 24 10 -3 6 -15
10 -25 10 -11 0 -24 9 -30 21 -9 17 -8 25 6 40 21 24 79 23 79 -1z m105 -49
c0 -60 -2 -69 -17 -67 -15 2 -18 14 -20 62 -1 65 1 74 23 74 11 0 14 -16 14
-69z m154 53 c21 -21 20 -38 -1 -31 -47 13 -48 12 -51 -20 -3 -34 13 -44 35
-22 12 12 33 4 33 -11 0 -5 -11 -17 -25 -26 -37 -24 -72 -6 -81 41 -12 66 48
112 90 69z m160 -6 c31 -44 6 -118 -39 -118 -24 0 -55 38 -55 68 0 38 26 72
55 72 13 0 31 -10 39 -22z"/>
<path d="M2293 2794 c-6 -13 -8 -26 -3 -29 4 -3 11 7 14 21 9 35 4 39 -11 8z"/>
<path d="M2203 2799 c-15 -5 -23 -17 -23 -31 l0 -22 15 21 c8 12 25 23 38 25
16 2 18 5 7 9 -8 4 -25 3 -37 -2z"/>
<path d="M3776 2781 c-38 -42 -42 -223 -5 -267 17 -21 53 -17 75 7 16 17 20
39 22 123 1 55 -1 107 -6 114 -14 21 -60 -2 -69 -35 -10 -37 -10 -117 0 -170
5 -28 4 -43 -3 -43 -21 0 -32 57 -28 148 3 88 5 95 31 118 16 14 22 24 14 24
-8 0 -21 -8 -31 -19z"/>
<path d="M1581 2768 c1 -24 3 -27 6 -10 4 18 11 22 39 22 21 0 33 4 29 10 -3
6 -22 10 -41 10 -32 0 -34 -2 -33 -32z"/>
<path d="M1638 2762 c-10 -2 -18 -8 -18 -13 0 -13 27 -11 35 2 9 13 4 16 -17
11z"/>
<path d="M1890 2725 c0 -15 4 -24 10 -20 6 3 10 12 10 20 0 8 -4 17 -10 20 -6
4 -10 -5 -10 -20z"/>
<path d="M1872 2623 c-12 -23 -36 -152 -30 -159 3 -2 8 15 12 38 13 80 28 118
48 118 10 0 18 5 18 10 0 17 -39 11 -48 -7z"/>
<path d="M2021 2544 c0 -11 3 -14 6 -6 3 7 2 16 -1 19 -3 4 -6 -2 -5 -13z"/>
<path d="M1798 2423 c12 -2 30 -2 40 0 9 3 -1 5 -23 4 -22 0 -30 -2 -17 -4z"/>
<path d="M2517 2793 c-4 -3 -7 -81 -7 -171 0 -91 3 -163 6 -159 3 3 6 68 6
144 -1 155 3 180 26 186 13 4 12 5 -4 6 -11 0 -24 -2 -27 -6z"/>
<path d="M2884 2786 c-3 -8 -4 -23 -1 -33 4 -14 5 -14 6 4 1 25 36 39 71 30
11 -3 20 -1 20 4 0 16 -90 11 -96 -5z"/>
<path d="M2882 2558 l2 -103 5 94 c5 82 9 95 26 102 17 7 16 8 -7 8 l-28 1 2
-102z"/>
<path d="M2878 2423 c7 -3 16 -2 19 1 4 3 -2 6 -13 5 -11 0 -14 -3 -6 -6z"/>
<path d="M2986 2243 c-13 -13 -6 -63 9 -63 10 0 15 10 15 29 0 30 -12 46 -24
34z"/>
</g>
</svg>
