<?xml version="1.0" standalone="no"?>
<!DOCTYPE svg PUBLIC "-//W3C//DTD SVG 20010904//EN"
 "http://www.w3.org/TR/2001/REC-SVG-20010904/DTD/svg10.dtd">
<svg version="1.0" xmlns="http://www.w3.org/2000/svg"
 width="360.000000pt" height="360.000000pt" viewBox="0 0 360.000000 360.000000"
 preserveAspectRatio="xMidYMid meet">

<g transform="translate(0.000000,360.000000) scale(0.100000,-0.100000)"
fill="#000000" stroke="none">
<path d="M224 2550 c-36 -14 -64 -59 -64 -101 l0 -39 1640 0 1640 0 0 40 c0
30 -7 48 -29 72 l-29 33 -1569 2 c-862 1 -1578 -2 -1589 -7z"/>
<path d="M160 1800 l0 -530 308 0 c342 0 385 6 480 63 30 18 79 57 111 87 56
53 318 363 328 387 3 7 -56 82 -131 168 -75 85 -138 166 -142 179 -7 28 18 81
41 90 9 3 29 6 45 6 30 0 60 -29 214 -208 44 -51 83 -92 87 -92 3 0 55 59 114
130 58 72 116 140 128 150 48 45 127 8 127 -59 0 -34 -14 -55 -129 -196 l-129
-158 83 -95 84 -95 -19 -26 c-11 -14 -35 -43 -53 -64 l-33 -39 -84 96 c-46 53
-87 93 -91 88 -3 -4 -57 -70 -119 -147 -136 -169 -155 -191 -203 -232 l-38
-33 1151 0 1150 0 0 530 0 530 -304 0 c-274 0 -310 -2 -367 -20 -75 -23 -154
-74 -224 -144 -60 -61 -315 -356 -322 -373 -3 -7 54 -82 126 -168 72 -85 134
-167 137 -182 14 -55 -52 -117 -102 -95 -19 9 -92 90 -259 290 l-21 24 -119
-140 c-118 -137 -146 -162 -186 -162 -33 0 -69 44 -69 84 0 31 17 54 130 186
72 82 130 154 130 159 0 5 -35 52 -79 103 l-78 94 49 62 c28 34 53 62 57 62 4
0 42 -43 85 -95 43 -52 82 -92 87 -89 5 3 73 81 150 172 78 92 159 182 181
200 l41 32 -1162 0 -1161 0 0 -530z m629 439 c122 -28 235 -118 292 -235 29
-58 34 -80 37 -159 5 -112 -11 -176 -67 -262 -152 -235 -494 -258 -681 -46
-51 58 -86 132 -101 216 -16 87 -2 166 46 263 85 173 285 267 474 223z m2243
0 c125 -26 242 -122 301 -246 30 -63 32 -76 32 -173 0 -97 -2 -110 -32 -173
-44 -93 -119 -169 -212 -215 -72 -36 -79 -37 -180 -37 -98 0 -111 2 -174 32
-282 134 -344 492 -122 702 107 101 243 140 387 110z"/>
<path d="M585 2066 c-60 -27 -107 -73 -138 -130 -16 -31 -22 -58 -22 -116 0
-65 4 -82 30 -129 49 -90 134 -139 240 -140 105 -1 211 69 252 168 20 47 20
155 -1 204 -60 139 -228 206 -361 143z"/>
<path d="M2847 2076 c-216 -80 -240 -375 -39 -494 41 -24 57 -27 132 -27 75 0
91 3 131 27 92 54 139 135 139 238 0 103 -48 184 -137 237 -55 32 -166 42
-226 19z"/>
<path d="M160 1150 c0 -30 7 -48 29 -72 l29 -33 1582 0 1582 0 29 33 c22 24
29 42 29 72 l0 40 -1640 0 -1640 0 0 -40z"/>
</g>
</svg>
