<svg xmlns="http://www.w3.org/2000/svg" width="4149" height="947" viewBox="0 0 4149 947" version="1.1"><path d="M 227.750 259.290 L -0 393.433 -0 639.216 L 0 885 68 885 L 136 885 136.044 674.750 L 136.089 464.500 296.003 370 L 455.918 275.500 455.959 200.250 C 455.981 158.863, 455.887 125.033, 455.750 125.074 C 455.613 125.115, 353.012 185.512, 227.750 259.290 M 1316.431 523.738 C 1312.069 531.294, 1307.344 539.732, 1305.932 542.488 C 1304.519 545.245, 1302.731 548.501, 1301.957 549.724 C 1300.357 552.256, 1301.430 554.551, 1316.241 580.267 L 1324.171 594.035 1348.693 593.767 L 1373.216 593.500 1385.118 572.876 L 1397.021 552.252 1384.861 531.126 L 1372.701 510 1348.532 510 L 1324.363 510 1316.431 523.738 M 1215.221 608.250 C 1210.719 616.087, 1205.392 625.670, 1203.383 629.544 L 1199.730 636.589 1206.446 648.902 C 1210.141 655.674, 1215.398 664.999, 1218.130 669.625 L 1223.098 678.035 1247.662 677.767 L 1272.226 677.500 1284.046 657.047 C 1290.548 645.798, 1295.747 636.348, 1295.600 636.047 C 1295.453 635.746, 1289.982 626.163, 1283.442 614.750 L 1271.552 594 1247.479 594 L 1223.407 594 1215.221 608.250 M 1786.500 729.423 C 1769.283 732.778, 1756.588 739.355, 1744.916 750.966 C 1737.778 758.068, 1735.546 761.104, 1731.656 769.003 C 1724.918 782.688, 1722.834 791.652, 1722.708 807.500 C 1722.593 821.755, 1724.226 831.273, 1728.667 842.240 C 1735.040 857.980, 1748.112 872.016, 1763.411 879.546 C 1777.802 886.629, 1785.609 888.312, 1804.500 888.404 C 1822.533 888.491, 1830.256 886.921, 1843.500 880.477 C 1850.834 876.908, 1863.809 867.661, 1864.685 865.379 C 1865.082 864.344, 1845.565 841, 1844.303 841 C 1844.146 841, 1841.928 842.594, 1839.375 844.543 C 1836.822 846.492, 1833.370 848.791, 1831.704 849.653 C 1816.936 857.290, 1796.372 857.822, 1782.837 850.917 C 1777.378 848.132, 1769.445 840.616, 1766.300 835.249 C 1757.530 820.284, 1757.530 796.716, 1766.300 781.751 C 1769.443 776.388, 1777.377 768.869, 1782.827 766.088 C 1799.515 757.575, 1822.183 759.879, 1836.585 771.552 L 1840.669 774.863 1852.008 763.492 C 1864.889 750.574, 1864.702 751.952, 1854.612 744.368 C 1846.773 738.475, 1837.071 733.606, 1827.821 730.922 C 1818.415 728.193, 1796.829 727.410, 1786.500 729.423 M 2193.500 729.423 C 2176.283 732.778, 2163.588 739.355, 2151.916 750.966 C 2144.778 758.068, 2142.546 761.104, 2138.656 769.003 C 2131.918 782.688, 2129.834 791.652, 2129.708 807.500 C 2129.593 821.755, 2131.226 831.273, 2135.667 842.240 C 2142.040 857.980, 2155.112 872.016, 2170.411 879.546 C 2184.802 886.629, 2192.609 888.312, 2211.500 888.404 C 2229.533 888.491, 2237.256 886.921, 2250.500 880.477 C 2257.834 876.908, 2270.809 867.661, 2271.685 865.379 C 2272.082 864.344, 2252.565 841, 2251.303 841 C 2251.146 841, 2248.928 842.594, 2246.375 844.543 C 2237.245 851.513, 2228.025 854.888, 2216 855.664 C 2201.454 856.603, 2190.084 852.900, 2180.774 844.192 C 2171.080 835.124, 2166.865 824.308, 2166.865 808.500 C 2166.865 792.692, 2171.080 781.876, 2180.774 772.808 C 2189.299 764.834, 2199.600 761, 2212.500 761 C 2224.330 761, 2235.061 764.643, 2243.585 771.552 L 2247.669 774.863 2259.008 763.492 C 2271.889 750.574, 2271.702 751.952, 2261.612 744.368 C 2253.773 738.475, 2244.071 733.606, 2234.821 730.922 C 2225.415 728.193, 2203.829 727.410, 2193.500 729.423 M 2342 729.460 C 2317.058 734.815, 2298.324 748.532, 2288.006 768.993 C 2276.797 791.222, 2276.530 823.106, 2287.359 846.337 C 2296.469 865.882, 2314.064 880.115, 2336.500 886.088 C 2347.752 889.083, 2368.290 889.775, 2380.896 887.583 C 2411.426 882.275, 2433.776 862.537, 2442.200 833.443 C 2444.198 826.542, 2444.500 823.270, 2444.500 808.500 C 2444.500 788.840, 2442.947 781.557, 2435.770 767.557 C 2429.782 755.876, 2416.695 742.991, 2405 737.260 C 2390.996 730.398, 2383.985 728.851, 2365 728.430 C 2353.406 728.173, 2346.567 728.480, 2342 729.460 M 2681.500 728.715 C 2669.178 730.419, 2654.941 736.550, 2647.249 743.466 C 2637.478 752.251, 2633 762.476, 2633 776 C 2633 801.849, 2649.438 816.099, 2685.500 821.512 C 2711.713 825.447, 2718.619 827.687, 2722.094 833.387 C 2727.580 842.382, 2720.774 852.240, 2707.116 855.083 C 2698.911 856.790, 2681.148 855.712, 2672.500 852.982 C 2664.644 850.502, 2657.478 847.087, 2651.425 842.938 L 2647.350 840.144 2638.175 853.022 C 2633.129 860.104, 2629 866.296, 2629 866.780 C 2629 868.375, 2637.851 874.057, 2647.255 878.498 C 2663.559 886.198, 2681.691 889.670, 2700.500 888.692 C 2727.755 887.275, 2746.934 877.035, 2755.747 859.193 C 2759.467 851.664, 2759.500 851.490, 2759.462 839.548 C 2759.427 828.654, 2759.168 826.948, 2756.758 821.732 C 2749.295 805.574, 2731.274 796.004, 2699.921 791.545 C 2676.552 788.222, 2669 784.059, 2669 774.499 C 2669 770.784, 2669.555 769.511, 2672.430 766.637 C 2677.719 761.347, 2684.400 759.494, 2698 759.544 C 2711.283 759.592, 2717.489 761.101, 2729.036 767.091 C 2733.181 769.241, 2736.830 771, 2737.146 771 C 2737.461 771, 2741.474 765.333, 2746.062 758.407 L 2754.404 745.813 2751.952 743.929 C 2744.579 738.265, 2727.850 731.869, 2714.119 729.467 C 2706.430 728.121, 2688.740 727.713, 2681.500 728.715 M 3298.500 729.423 C 3281.283 732.778, 3268.588 739.355, 3256.916 750.966 C 3249.778 758.068, 3247.546 761.104, 3243.656 769.003 C 3236.918 782.688, 3234.834 791.652, 3234.708 807.500 C 3234.593 821.755, 3236.226 831.273, 3240.667 842.240 C 3247.040 857.980, 3260.112 872.016, 3275.411 879.546 C 3289.802 886.629, 3297.609 888.312, 3316.500 888.404 C 3334.533 888.491, 3342.256 886.921, 3355.500 880.477 C 3362.834 876.908, 3375.809 867.661, 3376.685 865.379 C 3377.082 864.344, 3357.565 841, 3356.303 841 C 3356.146 841, 3353.928 842.594, 3351.375 844.543 C 3342.245 851.513, 3333.025 854.888, 3321 855.664 C 3306.454 856.603, 3295.084 852.900, 3285.774 844.192 C 3276.080 835.124, 3271.865 824.308, 3271.865 808.500 C 3271.865 792.692, 3276.080 781.876, 3285.774 772.808 C 3294.299 764.834, 3304.600 761, 3317.500 761 C 3329.330 761, 3340.061 764.643, 3348.585 771.552 L 3352.669 774.863 3364.008 763.492 C 3376.889 750.574, 3376.702 751.952, 3366.612 744.368 C 3358.773 738.475, 3349.071 733.606, 3339.821 730.922 C 3330.415 728.193, 3308.829 727.410, 3298.500 729.423 M 3585 729.460 C 3560.058 734.815, 3541.324 748.532, 3531.006 768.993 C 3519.797 791.222, 3519.530 823.106, 3530.359 846.337 C 3539.469 865.882, 3557.064 880.115, 3579.500 886.088 C 3590.752 889.083, 3611.290 889.775, 3623.896 887.583 C 3654.426 882.275, 3676.776 862.537, 3685.200 833.443 C 3687.198 826.542, 3687.500 823.270, 3687.500 808.500 C 3687.500 788.840, 3685.947 781.557, 3678.770 767.557 C 3672.782 755.876, 3659.695 742.991, 3648 737.260 C 3633.996 730.398, 3626.985 728.851, 3608 728.430 C 3596.406 728.173, 3589.567 728.480, 3585 729.460 M 4058.500 728.715 C 4046.178 730.419, 4031.941 736.550, 4024.249 743.466 C 4014.478 752.251, 4010 762.476, 4010 776 C 4010 801.849, 4026.438 816.099, 4062.500 821.512 C 4088.713 825.447, 4095.619 827.687, 4099.094 833.387 C 4104.580 842.382, 4097.774 852.240, 4084.116 855.083 C 4075.911 856.790, 4058.148 855.712, 4049.500 852.982 C 4041.644 850.502, 4034.478 847.087, 4028.425 842.938 L 4024.350 840.144 4015.175 853.022 C 4010.129 860.104, 4006 866.296, 4006 866.780 C 4006 868.375, 4014.851 874.057, 4024.255 878.498 C 4040.559 886.198, 4058.691 889.670, 4077.500 888.692 C 4104.755 887.275, 4123.934 877.035, 4132.747 859.193 C 4136.467 851.664, 4136.500 851.490, 4136.462 839.548 C 4136.427 828.654, 4136.168 826.948, 4133.758 821.732 C 4126.295 805.574, 4108.274 796.004, 4076.921 791.545 C 4053.552 788.222, 4046 784.059, 4046 774.499 C 4046 770.784, 4046.555 769.511, 4049.430 766.637 C 4054.719 761.347, 4061.400 759.494, 4075 759.544 C 4088.283 759.592, 4094.489 761.101, 4106.036 767.091 C 4110.181 769.241, 4113.830 771, 4114.146 771 C 4114.461 771, 4118.474 765.333, 4123.062 758.407 L 4131.404 745.813 4128.952 743.929 C 4121.579 738.265, 4104.850 731.869, 4091.119 729.467 C 4083.430 728.121, 4065.740 727.713, 4058.500 728.715 M 1432 808 L 1432 885 1492 885 L 1552 885 1552 869.500 L 1552 854 1510 854 L 1468 854 1468 838 L 1468 822 1507.027 822 L 1546.053 822 1545.777 807.250 L 1545.500 792.500 1506.750 792.238 L 1468 791.977 1468 776.988 L 1468 762 1509 762 L 1550 762 1550 746.500 L 1550 731 1491 731 L 1432 731 1432 808 M 1578 807.917 L 1578 885 1596.500 885 L 1615 885 1615 863.500 L 1615 842 1638.250 841.983 C 1664.922 841.963, 1671.505 840.992, 1682.858 835.405 C 1691.420 831.191, 1700.108 823.034, 1704.272 815.299 C 1708.159 808.077, 1711.003 796.122, 1710.983 787.090 C 1710.921 759.950, 1696.381 740.650, 1670.500 733.351 C 1665.405 731.914, 1657.975 731.597, 1621.250 731.247 L 1578 730.835 1578 807.917 M 1885 808 L 1885 885 1903.490 885 L 1921.980 885 1922.240 838.151 L 1922.500 791.302 1944.500 818.133 C 1966.060 844.429, 1966.574 844.966, 1970.210 844.983 C 1973.859 845, 1974.283 844.556, 1995.710 818.322 L 2017.500 791.645 2017.760 838.322 L 2018.020 885 2036.510 885 L 2055 885 2055 808 L 2055 731 2038.688 731 L 2022.377 731 1996.263 763.496 L 1970.149 795.993 1965.728 790.746 C 1963.296 787.861, 1951.516 773.237, 1939.550 758.250 L 1917.794 731 1901.397 731 L 1885 731 1885 808 M 2468 808 L 2468 885 2486.611 885 L 2505.223 885 2504.856 838.545 C 2504.654 812.994, 2504.756 792.406, 2505.083 792.795 C 2505.409 793.183, 2520.707 814.087, 2539.078 839.250 L 2572.480 885 2589.240 885 L 2606 885 2606 808 L 2606 731 2587.415 731 L 2568.830 731 2569.165 778.019 C 2569.445 817.314, 2569.281 824.748, 2568.170 823.269 C 2567.438 822.296, 2551.987 801.138, 2533.833 776.250 L 2500.827 731 2484.413 731 L 2468 731 2468 808 M 2768 747.500 L 2768 764 2791.500 764 L 2815 764 2815 824.500 L 2815 885 2833 885 L 2851 885 2851 824.500 L 2851 764 2874.500 764 L 2898 764 2898 747.500 L 2898 731 2833 731 L 2768 731 2768 747.500 M 2917 807.918 L 2917 885 2935.500 885 L 2954 885 2954 859.965 L 2954 834.930 2964.170 835.215 L 2974.340 835.500 2993.420 860.245 L 3012.500 884.990 3034.300 884.995 C 3052.241 884.999, 3055.958 884.763, 3055.300 883.661 C 3054.860 882.925, 3045.500 871.206, 3034.500 857.619 C 3023.500 844.033, 3014.401 832.597, 3014.279 832.208 C 3014.158 831.819, 3016.904 830.229, 3020.380 828.677 C 3036.432 821.508, 3046.343 806.541, 3047.649 787.500 C 3049.436 761.443, 3035.043 740.751, 3009.955 733.309 C 3005.404 731.959, 2997.248 731.620, 2960.750 731.264 L 2917 730.836 2917 807.918 M 3074.241 783.727 C 3074.618 842.492, 3074.516 841.506, 3081.740 855.935 C 3086.621 865.686, 3096.003 875.223, 3105.700 880.292 C 3128.344 892.130, 3163.634 891.473, 3184.698 878.821 C 3192.098 874.376, 3201.941 863.594, 3205.852 855.649 C 3207.603 852.093, 3210.007 845.655, 3211.195 841.342 C 3213.272 833.800, 3213.357 831.549, 3213.427 782.500 L 3213.500 731.500 3195.250 731.227 L 3177 730.955 3176.994 776.227 C 3176.991 801.127, 3176.559 824.119, 3176.035 827.321 C 3174.053 839.424, 3167.889 848.417, 3158.358 853.108 C 3154.261 855.125, 3152.012 855.498, 3144 855.489 C 3132.134 855.475, 3126.055 853.079, 3119.563 845.858 C 3111.442 836.826, 3111.603 838.039, 3111.018 781.500 L 3110.500 731.500 3092.201 731.227 L 3073.902 730.955 3074.241 783.727 M 3384 747.500 L 3384 764 3407.500 764 L 3431 764 3431 824.500 L 3431 885 3449 885 L 3467 885 3467 824.500 L 3467 764 3490.500 764 L 3514 764 3514 747.500 L 3514 731 3449 731 L 3384 731 3384 747.500 M 3711 807.918 L 3711 885 3729.500 885 L 3748 885 3748 859.965 L 3748 834.930 3758.170 835.215 L 3768.340 835.500 3787.420 860.245 L 3806.500 884.990 3828.300 884.995 C 3846.241 884.999, 3849.958 884.763, 3849.300 883.661 C 3848.860 882.925, 3839.500 871.206, 3828.500 857.619 C 3817.500 844.033, 3808.401 832.597, 3808.279 832.208 C 3808.158 831.819, 3810.904 830.229, 3814.380 828.677 C 3830.432 821.508, 3840.343 806.541, 3841.649 787.500 C 3843.436 761.443, 3829.043 740.751, 3803.955 733.309 C 3799.404 731.959, 3791.248 731.620, 3754.750 731.264 L 3711 730.836 3711 807.918 M 3870 808 L 3870 885 3930 885 L 3990 885 3990 869.500 L 3990 854 3948 854 L 3906 854 3906 838 L 3906 822 3945.027 822 L 3984.053 822 3983.777 807.250 L 3983.500 792.500 3944.750 792.238 L 3906 791.977 3906 776.988 L 3906 762 3947 762 L 3988 762 3988 746.500 L 3988 731 3929 731 L 3870 731 3870 808 M 2346.500 763.064 C 2327.389 769.806, 2316.870 785.936, 2316.870 808.500 C 2316.870 837.670, 2334.494 855.947, 2362.661 855.988 C 2376.457 856.008, 2387.564 851.450, 2396.192 842.226 C 2404.554 833.287, 2408 823.443, 2408 808.500 C 2408 787.501, 2399.685 773.044, 2383.058 765.135 C 2376.082 761.817, 2374.892 761.575, 2364.058 761.271 C 2354.292 760.997, 2351.570 761.275, 2346.500 763.064 M 3589.500 763.064 C 3570.389 769.806, 3559.870 785.936, 3559.870 808.500 C 3559.870 837.670, 3577.494 855.947, 3605.661 855.988 C 3619.457 856.008, 3630.564 851.450, 3639.192 842.226 C 3647.554 833.287, 3651 823.443, 3651 808.500 C 3651 787.501, 3642.685 773.044, 3626.058 765.135 C 3619.082 761.817, 3617.892 761.575, 3607.058 761.271 C 3597.292 760.997, 3594.570 761.275, 3589.500 763.064 M 2954 783.999 L 2954 805.140 2975.750 804.820 C 2997.387 804.502, 2997.524 804.486, 3002.154 801.764 C 3008.855 797.825, 3011.336 792.333, 3010.842 782.536 C 3010.516 776.090, 3010.081 774.668, 3007.431 771.394 C 3001.561 764.141, 2999.211 763.541, 2975.250 763.179 L 2954 762.858 2954 783.999 M 3748 783.999 L 3748 805.140 3769.750 804.820 C 3791.387 804.502, 3791.524 804.486, 3796.154 801.764 C 3802.855 797.825, 3805.336 792.333, 3804.842 782.536 C 3804.516 776.090, 3804.081 774.668, 3801.431 771.394 C 3795.561 764.141, 3793.211 763.541, 3769.250 763.179 L 3748 762.858 3748 783.999 M 1615 787 L 1615 810.169 1636.750 809.825 C 1656.701 809.510, 1658.831 809.305, 1662.500 807.338 C 1670.479 803.062, 1674 796.835, 1674 787 C 1674 777.165, 1670.479 770.938, 1662.500 766.662 C 1658.831 764.695, 1656.701 764.490, 1636.750 764.175 L 1615 763.831 1615 787" stroke="none" fill="#2babe3" fill-rule="evenodd"/><path d="M 877.239 12.307 L 856.022 24.500 856.011 48.556 L 856 72.613 870.500 81 L 885 89.387 885 138.450 L 885 187.513 856.500 216 L 828 244.487 827.967 302.493 L 827.933 360.500 821.484 353.759 C 814.168 346.112, 808.690 336.193, 806.563 326.743 C 805.674 322.793, 804.928 310.951, 804.532 294.500 C 804.187 280.200, 803.427 266.250, 802.843 263.500 C 798.882 244.847, 783.065 228.378, 764.458 223.531 C 759.724 222.298, 751.856 222.002, 724.040 222.011 C 705.043 222.017, 687.813 222.301, 685.750 222.642 L 682 223.262 682 312.965 C 682 362.302, 681.701 474.945, 681.335 563.285 L 680.669 723.901 666.085 732.286 L 651.500 740.672 651.500 765.030 L 651.500 789.388 672 801.194 C 683.275 807.687, 692.908 813, 693.407 813 C 693.907 813, 703.469 807.724, 714.657 801.276 L 735 789.552 735 765 L 735 740.448 720.250 731.974 L 705.500 723.500 705.245 629.250 L 704.990 535 710.245 535.031 C 716.154 535.066, 735.025 537.214, 745.250 539.016 L 752 540.205 752 578.456 L 752 616.706 737.250 625.225 L 722.500 633.744 722.500 658.487 L 722.500 683.231 743.088 695.121 L 763.676 707.010 784.838 694.788 L 806 682.565 806 658.501 L 806 634.437 791.250 625.910 L 776.500 617.383 776.237 582.192 C 776.013 552.185, 776.186 547, 777.408 547 C 780.860 547, 802.051 555.168, 818.250 562.743 L 828 567.302 827.967 680.401 L 827.934 793.500 811.450 802.863 L 794.966 812.226 795.233 836.847 L 795.500 861.468 812.500 871.302 C 821.850 876.710, 831.129 882.055, 833.119 883.178 L 836.738 885.221 857.869 873.029 L 879 860.836 878.986 836.668 L 878.971 812.500 865.859 805.001 C 858.647 800.876, 852.575 797.051, 852.365 796.501 C 852.156 795.950, 852.101 747.435, 852.242 688.688 L 852.500 581.877 860.641 587.688 C 898.625 614.804, 931.020 652.410, 952.112 693.872 C 979.385 747.485, 988.984 810.572, 978.911 870 C 977.839 876.325, 976.715 882.288, 976.414 883.250 C 975.893 884.912, 983.945 885, 1135.933 885 L 1296 885 1295.993 881.750 C 1295.920 846.085, 1293.702 745.121, 1292.902 741 C 1290.201 727.104, 1278.940 711.893, 1266.500 705.339 C 1254.963 699.260, 1252.015 698.851, 1218.203 698.635 C 1189.774 698.454, 1187.091 698.285, 1181.978 696.352 C 1162.181 688.869, 1149.948 676.374, 1142.964 656.504 C 1141.997 653.752, 1140.886 650.712, 1140.496 649.750 C 1139.828 648.104, 1141.761 648, 1172.932 648 L 1206.078 648 1202.848 642.169 L 1199.618 636.338 1202.809 630.684 C 1204.564 627.575, 1206 624.798, 1206 624.515 C 1206 624.232, 1188.773 624, 1167.719 624 L 1129.438 624 1124.183 612.709 C 1121.294 606.499, 1118.276 598.961, 1117.476 595.959 C 1115.730 589.398, 1115.576 577.442, 1117.138 569.667 L 1118.276 564 1212.734 564 L 1307.191 564 1304.095 558.515 C 1302.393 555.498, 1301 552.580, 1301 552.030 C 1301 551.480, 1302.350 548.836, 1304 546.154 C 1305.650 543.473, 1307 540.991, 1307 540.639 C 1307 540.288, 1267.972 540, 1220.271 540 L 1133.542 540 1142.072 531.250 C 1161.988 510.820, 1166.152 505.888, 1169.577 498.669 C 1177.684 481.588, 1176.530 462.240, 1166.461 446.403 C 1162.499 440.171, 1067.285 347.097, 1059.499 341.845 C 1044.419 331.673, 1024.377 330.460, 1007 338.668 C 1000.215 341.873, 997.605 344.111, 979.620 362.146 C 968.687 373.111, 957.761 383.444, 955.342 385.109 C 950.282 388.590, 941.975 392.420, 937.250 393.450 L 934 394.159 934 377.823 L 934 361.487 962.500 333 L 991 304.513 991 249.878 L 991 195.242 1003.978 187.871 L 1016.956 180.500 1016.941 156 L 1016.925 131.500 996.846 120 C 985.802 113.675, 976.009 108.500, 975.082 108.500 C 974.156 108.500, 964.322 113.675, 953.229 120 L 933.059 131.500 933.060 156 L 933.061 180.500 949.530 189.876 L 966 199.252 966 247.382 L 966 295.513 937.500 324 L 909 352.487 909 373.163 L 909 393.839 905.555 392.888 C 903.660 392.364, 898.598 390.317, 894.305 388.337 C 890.012 386.357, 878.850 381.673, 869.500 377.927 L 852.500 371.118 852.242 312.823 L 851.984 254.529 880.484 226.015 L 908.984 197.500 909.242 144.149 L 909.500 90.798 924.500 82.099 L 939.500 73.399 939.500 48.593 L 939.500 23.788 924 14.832 C 915.475 9.906, 906.240 4.579, 903.478 2.995 L 898.456 0.114 877.239 12.307 M 886.786 29.302 L 876.072 35.500 876.036 48.546 L 876 61.592 886.878 67.796 C 892.861 71.208, 898.094 74, 898.505 74 C 898.917 74, 904.139 71.188, 910.110 67.750 L 920.966 61.500 920.966 48.500 L 920.966 35.500 910.252 29.500 C 904.359 26.200, 899.079 23.411, 898.519 23.302 C 897.958 23.193, 892.679 25.893, 886.786 29.302 M 964 136.414 L 953.500 142.630 953.500 155.999 L 953.500 169.368 964.250 175.648 L 975 181.929 985.750 175.648 L 996.500 169.368 996.500 156 L 996.500 142.632 985.689 136.316 C 979.743 132.842, 974.793 130.045, 974.689 130.099 C 974.585 130.154, 969.775 132.995, 964 136.414 M 3009.390 139.994 C 2952.854 143.942, 2909.739 160.575, 2880.657 189.657 C 2856.257 214.057, 2843.861 243.210, 2840.997 282.925 C 2839.694 300.987, 2839.714 515.283, 2841.019 533.395 C 2843.996 574.681, 2857.357 605.586, 2883.432 631.500 C 2908.354 656.269, 2939.705 670.561, 2979 675.067 C 2990.894 676.431, 3030.359 675.777, 3043.500 673.998 C 3073.291 669.965, 3099.492 661.621, 3118.369 650.152 L 3124.927 646.169 3132.072 654.584 L 3139.216 663 3182.608 663 L 3226 663 3226 526 L 3226 389 3124 389 L 3022 389 3022 447.500 L 3022 506 3040.584 506 L 3059.169 506 3058.817 522.750 C 3058.502 537.755, 3058.220 540.048, 3056.106 544.757 C 3054.809 547.649, 3052.227 551.349, 3050.369 552.981 C 3045.720 557.063, 3037.202 559.416, 3030.087 558.583 C 3019.406 557.333, 3013.139 552.621, 3009.270 542.931 C 3007.608 538.771, 3007.500 530.479, 3007.500 407.500 L 3007.500 276.500 3009.892 271.206 C 3014.501 261.005, 3023.177 256.315, 3035.771 257.216 C 3046.045 257.951, 3052.230 262.084, 3056.397 271 C 3058.422 275.333, 3058.511 277.184, 3058.797 320.750 L 3059.095 366 3142.547 366 L 3226 366 3226 326.606 C 3226 275.647, 3224.761 263.235, 3217.490 241.340 C 3198.766 184.958, 3148.722 150.435, 3072.851 141.560 C 3056.829 139.686, 3025.036 138.902, 3009.390 139.994 M 1441 408 L 1441 664 1524.500 664 L 1608 664 1608 408 L 1608 152 1524.500 152 L 1441 152 1441 408 M 1658 408 L 1658 664 1741.494 664 L 1824.989 664 1825.244 579.394 L 1825.500 494.788 1860.645 579.144 L 1895.790 663.500 1969.395 663.756 L 2043 664.013 2043 408.006 L 2043 152 1960.006 152 L 1877.011 152 1876.756 237.020 L 1876.500 322.040 1841.091 237.020 L 1805.681 152 1731.841 152 L 1658 152 1658 408 M 2065 211 L 2065 270 2123 270 L 2181 270 2181 466.500 L 2181 663 2264.500 663 L 2348 663 2348 466.508 L 2348 270.016 2406.250 269.758 L 2464.500 269.500 2464.758 210.750 L 2465.016 152 2265.008 152 L 2065 152 2065 211 M 2486 407.500 L 2486 663 2647.500 663 L 2809 663 2809 604.500 L 2809 546 2731 546 L 2653 546 2653 506.500 L 2653 467 2711 467 L 2769 467 2769 408 L 2769 349 2711 349 L 2653 349 2653 309.500 L 2653 270 2731 270 L 2809 270 2809 211 L 2809 152 2647.500 152 L 2486 152 2486 407.500 M 3273 407.500 L 3273 663 3356.500 663 L 3440 663 3440 588 L 3440 513 3456.250 513.022 C 3470.440 513.041, 3473.071 513.303, 3477 515.084 C 3485.597 518.982, 3489.363 524.537, 3490.978 535.706 C 3491.533 539.546, 3491.969 568.700, 3491.980 602.750 L 3492 663 3575.054 663 L 3658.108 663 3657.731 598.750 C 3657.399 542.057, 3657.150 533.618, 3655.611 527 C 3650.832 506.443, 3643.726 492.178, 3632.088 479.775 C 3624.208 471.377, 3610.672 461.713, 3601.418 457.878 C 3598.438 456.642, 3596.002 455.377, 3596.004 455.066 C 3596.006 454.755, 3599.724 453.040, 3604.267 451.255 C 3617.198 446.176, 3624.743 441.265, 3634.605 431.508 C 3642.350 423.846, 3644.405 421.081, 3648.365 413 C 3657.447 394.466, 3657.367 395.140, 3657.783 333 C 3658.171 274.944, 3657.758 267.043, 3653.463 250.476 C 3648.263 230.416, 3639.743 215.037, 3625.681 200.328 C 3598.907 172.321, 3557.726 157.300, 3496 153.024 C 3487.738 152.452, 3436.650 152.016, 3377.250 152.010 L 3273 152 3273 407.500 M 3815.485 153.250 C 3814.860 154.976, 3672 663.105, 3672 663.601 C 3672 663.820, 3712.020 664, 3760.933 664 C 3844.773 664, 3849.894 663.900, 3850.367 662.250 C 3850.643 661.288, 3853.224 649.808, 3856.103 636.741 L 3861.338 612.981 3910.334 613.241 L 3959.330 613.500 3964.915 638.500 L 3970.500 663.500 4059.250 663.755 C 4135.120 663.974, 4148 663.806, 4148 662.599 C 4148 661.823, 4116.322 548.533, 4077.605 410.844 C 4038.887 273.155, 4006.695 158.588, 4006.066 156.250 L 4004.923 152 3910.430 152 C 3835.744 152, 3815.842 152.262, 3815.485 153.250 M 408.500 356.815 L 181.500 490.500 181.248 687.750 L 180.995 885 409.498 885 L 638 885 638 676.393 C 638 509.907, 637.748 467.887, 636.750 468.287 C 636.063 468.563, 605.350 486.788, 568.500 508.788 L 501.500 548.787 501.245 651.893 L 500.991 755 408.990 755 L 316.990 755 317.245 658.418 L 317.500 561.836 477.500 467.081 L 637.500 372.326 637.756 297.663 C 637.960 238.234, 637.756 223.013, 636.756 223.065 C 636.065 223.101, 533.350 283.289, 408.500 356.815 M 3440 332.500 L 3440 395 3455.634 395 C 3472.904 395, 3477.115 394.178, 3482.473 389.762 C 3490.896 382.819, 3491.960 376.396, 3491.960 332.500 C 3491.960 289.627, 3490.958 283.032, 3483.342 275.803 C 3478.017 270.750, 3474.554 270, 3456.532 270 L 3440 270 3440 332.500 M 3909.617 392 C 3909.271 393.375, 3904.268 416.325, 3898.500 443 C 3892.732 469.675, 3887.776 492.512, 3887.487 493.750 L 3886.962 496 3909.981 496 C 3928.873 496, 3933 495.753, 3933 494.622 C 3933 493.334, 3911.336 392.684, 3910.589 390.500 C 3910.401 389.950, 3909.963 390.625, 3909.617 392 M 751.782 639.300 L 741.064 645.500 741.062 658.500 L 741.059 671.500 751.630 677.500 C 757.444 680.800, 762.601 683.648, 763.090 683.830 C 763.579 684.011, 768.926 681.311, 774.972 677.830 L 785.966 671.500 785.975 658.500 L 785.984 645.500 775.152 639.250 C 769.194 635.813, 763.910 633.023, 763.410 633.050 C 762.909 633.078, 757.677 635.890, 751.782 639.300 M 682.218 745.637 L 671 752.168 671 765.040 L 671 777.912 678.250 782.103 C 682.237 784.408, 687.300 787.314, 689.500 788.561 L 693.500 790.826 704.750 784.329 L 716 777.831 716 765.003 L 716 752.175 707.750 747.465 C 703.212 744.874, 698.135 741.933, 696.468 740.930 L 693.435 739.106 682.218 745.637 M 825.495 817.388 L 814.500 823.779 814.236 836.640 L 813.972 849.500 824.961 855.828 C 831.005 859.309, 836.524 862.009, 837.225 861.828 C 837.926 861.648, 843.112 858.865, 848.750 855.645 L 859 849.789 858.983 836.645 L 858.966 823.500 848.277 817.500 C 842.398 814.200, 837.340 811.387, 837.039 811.248 C 836.737 811.110, 831.543 813.873, 825.495 817.388" stroke="none" fill="#141c44" fill-rule="evenodd"/></svg>